<svg width="180" height="100" xmlns="http://www.w3.org/2000/svg">
    <g transform="rotate(0 40 48)">
      <path stroke="black" stroke-width="1" stroke-linecap="round" fill="none" d="
        M 40 5
        L 50  15
        L 60 5
        "/>
        <path d="M 60 5 Q 70 25 50 45" stroke="black" fill="none" stroke-width="1" stroke-linecap="round"/>
        <path d="M 40 5 Q 30 25 50 45" stroke="black" fill="none" stroke-width="1" stroke-linecap="round"/>
    </g>
    <g transform="rotate(72 50 48)">
        <path stroke="black" stroke-width="1" stroke-linecap="round" fill="none" d="
        M 40 5
        L 50  15
        L 60 5
        "/>
        <path d="M 60 5 Q 70 25 50 45" stroke="black" fill="none" stroke-width="1" stroke-linecap="round"/>
        <path d="M 40 5 Q 30 25 50 45" stroke="black" fill="none" stroke-width="1" stroke-linecap="round"/>
    </g>
    <g transform="rotate(144 50 48)">
        <path stroke="black" stroke-width="1" stroke-linecap="round" fill="none" d="
        M 40 5
        L 50  15
        L 60 5
        "/>
        <path d="M 60 5 Q 70 25 50 45" stroke="black" fill="none" stroke-width="1" stroke-linecap="round"/>
        <path d="M 40 5 Q 30 25 50 45" stroke="black" fill="none" stroke-width="1" stroke-linecap="round"/>
    </g>
    <g transform="rotate(216 50 48)">
        <path stroke="black" stroke-width="1" stroke-linecap="round" fill="none" d="
        M 40 5
        L 50  15
        L 60 5
        "/>
        <path d="M 60 5 Q 70 25 50 45" stroke="black" fill="none" stroke-width="1" stroke-linecap="round"/>
        <path d="M 40 5 Q 30 25 50 45" stroke="black" fill="none" stroke-width="1" stroke-linecap="round"/>
    </g>
    <g transform="rotate(288 50 48)">
        <path stroke="black" stroke-width="1" stroke-linecap="round" fill="none" d="
        M 40 5
        L 50  15
        L 60 5
        "/>
        <path d="M 60 5 Q 70 25 50 45" stroke="black" fill="none" stroke-width="1" stroke-linecap="round"/>
        <path d="M 40 5 Q 30 25 50 45" stroke="black" fill="none" stroke-width="1" stroke-linecap="round"/>
    </g>
    <!--<rect width="180" height="100" x="0" y="0" fill="none" stroke="black"/>-->
    <!--t-->
    <path d="
        M 90 60
        l 0 15
        s -0 9 10 7
        M 88 68
        l 10 0"
        stroke="pink" fill="none" stroke-width="1" stroke-linecap="round"
    />
    <!--e-->
    <path d="
        M 115 65
        s -6 0 -5 10
        M 115 65
        s 5 0 5 7
        M 110 72
        l 10 0
        M 110 75
        s 0 10 10 7"
        stroke="black" fill="none" stroke-width="1" stroke-linecap="round"
    />
    <!--c-->
    <path d="
        M 138 65
        s -7 -1 -8 7
        M 130 72
        s -2 11 9 10"
        stroke="black" fill="none" stroke-width="1" stroke-linecap="round"
    />
    <!--h-->
    <path d="
        M 150 50
        l 0 32
        M 155 65
        s -5 -0 -5 8
        M 155 65
        s 5 -0 5 7
        l 0 10
        M 160 70
        "
        stroke="black" fill="none" stroke-width="1" stroke-linecap="round"
    />
  </svg>